<svg viewBox="0 0 12 12" xmlns="http://www.w3.org/2000/svg" xmlns:xlink="http://www.w3.org/1999/xlink" width="12.000000" height="12.000000" fill="none">
	<defs>
		<filter id="pixso_custom_mask_type_luminance">
			<feColorMatrix type="matrix" values="1 0 0 0 0 0 1 0 0 0 0 0 1 0 0 0 0 0 1 0 " />
		</filter>
	</defs>
	<mask id="mask_0" width="11.999876" height="11.999876" x="0.000000" y="0.000000" maskUnits="userSpaceOnUse">
		<g filter="url(#pixso_custom_mask_type_luminance)">
			<g id="mask401_19830">
				<path id="蒙版" d="M0 0L11.9999 0L11.9999 11.9999L0 11.9999L0 0ZM2.69992 1.34999L8.09977 1.34999C9.5082 1.34999 10.6498 2.49167 10.6498 3.89998L10.6498 9.2999C10.6498 10.7082 9.5082 11.8499 8.09977 11.8499L2.69992 11.8499C1.29149 11.8499 0.149901 10.7082 0.149901 9.2999L0.149901 3.89998C0.149901 2.49167 1.29149 1.34999 2.69992 1.34999Z" fill="rgb(196,196,196)" fill-rule="evenodd" />
			</g>
		</g>
	</mask>
	<rect id="ic_public_copy" width="12.000000" height="12.000000" x="0.000000" y="0.000000" />
	<rect id="ic_public_copy-复制/base/ic_public_copy" width="11.999876" height="11.999876" x="0.000000" y="0.000000" fill="rgb(255,255,255)" fill-opacity="0" />
	<path id="path1" d="M0.000134537 5.99497C0.000134537 5.05748 -0.00236544 4.11999 0.000134537 3.1825C-0.00236544 2.72751 0.055134 2.27501 0.165133 1.83752C0.41263 0.907526 1.01762 0.355032 1.94761 0.140034C2.41261 0.040035 2.8901 -0.00746449 3.3651 3.54269e-05C5.16258 3.54269e-05 6.96006 3.54269e-05 8.76004 3.54269e-05C9.21254 -0.00246455 9.66503 0.0475349 10.1075 0.155034C11.065 0.387531 11.64 0.995025 11.8575 1.95002C11.9575 2.40001 12.005 2.86001 11.9975 3.3225C11.9975 5.13998 11.9975 6.95746 11.9975 8.77244C12 9.22244 11.95 9.67243 11.845 10.1099C11.61 11.0674 11 11.6374 10.0475 11.8574C9.58003 11.9574 9.10504 12.0049 8.62754 11.9974C6.83756 11.9974 5.04758 11.9974 3.2576 11.9974C2.80011 12.0024 2.34511 11.9499 1.90011 11.8449C0.937625 11.6124 0.360131 11.0024 0.142633 10.0424C0.0301342 9.55494 0.000134537 9.06744 0.000134537 8.57495C0.000134537 7.71495 0.000134537 6.85496 0.000134537 5.99497Z" fill="rgb(255,255,255)" fill-opacity="0" fill-rule="evenodd" />
	<circle id="path2" cx="5.99993801" cy="5.99993801" r="5.99993801" fill="rgb(255,255,255)" fill-opacity="0" />
	<g id="mask" mask="url(#mask_0)">
		<g id="组合 8">
			<path id="path" d="M11.1 3.89993L11.1 6.8999C11.1 8.55488 9.75502 9.89737 8.10004 9.89737L5.10007 9.89737C3.44258 9.89737 2.1001 8.55488 2.1001 6.8999L2.1001 3.89993C2.1001 2.24245 3.44258 0.897461 5.10007 0.897461L8.10004 0.897461C9.75502 0.897461 11.1 2.24245 11.1 3.89993Z" fill-rule="nonzero" stroke="rgb(25,25,25)" stroke-linejoin="round" stroke-width="0.749992251" />
		</g>
	</g>
	<path id="path4" d="M2.10008 2.39746L8.10002 2.39746C8.92751 2.39746 9.6 3.06995 9.6 3.89995L9.6 9.89738C9.6 10.7274 8.92751 11.3999 8.10002 11.3999L2.10008 11.3999C1.27009 11.3999 0.600098 10.7274 0.600098 9.89738L0.600098 3.89995C0.600098 3.06995 1.27009 2.39746 2.10008 2.39746Z" fill="rgb(255,255,255)" fill-opacity="0" fill-rule="evenodd" />
	<path id="path4" d="M9.6 3.89995L9.6 9.89738C9.6 10.7274 8.92751 11.3999 8.10002 11.3999L2.10008 11.3999C1.27009 11.3999 0.600098 10.7274 0.600098 9.89738L0.600098 3.89995C0.600098 3.06995 1.27009 2.39746 2.10008 2.39746L8.10002 2.39746C8.92751 2.39746 9.6 3.06995 9.6 3.89995Z" fill-rule="nonzero" stroke="rgb(25,25,25)" stroke-linejoin="round" stroke-width="0.749992251" />
</svg>
